# xmcd
#
# Track frame offsets:
#	150
#	17010
#	30512
#
# Disc length: 789 seconds
#
# Revision: 0
# Processed by: cddbd v1.5.1PL2 Copyright (c) Steve Scherf et al.
# Submitted via: audiograbber 1.83.01
#
DISCID=16031303
DTITLE=Scuba Z - Hip Bounce
DYEAR=2000
DGENRE=Hip-Hop
TTITLE0=Hip Bounce (Radio Edit)
TTITLE1=Sharon Stone's House
TTITLE2=Hip Bounce (Blim's Crazy Geek Mix)
EXTD=
EXTT0=
EXTT1=
EXTT2=
PLAYORDER=
